<svg xmlns="http://www.w3.org/2000/svg" viewBox="0 0 32 32" width="32" height="32">
  <!-- Crown -->
  <g transform="translate(2, 2)">
    <!-- Crown base -->
    <path d="M4 20 L24 20 L24 18 L4 18 Z" fill="#FFD700" stroke="#B8860B" stroke-width="0.5"/>
    <!-- Crown peaks -->
    <path d="M6 18 L8 8 L10 18 M12 18 L14 6 L16 18 M18 18 L20 8 L22 18" fill="#FFD700" stroke="#B8860B" stroke-width="0.5"/>
    <!-- Crown jewels -->
    <circle cx="8" cy="10" r="1" fill="#FF1493"/>
    <circle cx="14" cy="8" r="1" fill="#00BFFF"/>
    <circle cx="20" cy="10" r="1" fill="#32CD32"/>
  </g>
  
  <!-- Football -->
  <g transform="translate(8, 12)">
    <!-- Football body -->
    <ellipse cx="8" cy="4" rx="6" ry="3" fill="#8B4513" stroke="#654321" stroke-width="0.5"/>
    <!-- Football laces -->
    <path d="M2 4 L14 4" stroke="#FFFFFF" stroke-width="0.3"/>
    <path d="M3 3 L3 5 M5 2.5 L5 5.5 M7 2.5 L7 5.5 M9 2.5 L9 5.5 M11 3 L11 5" stroke="#FFFFFF" stroke-width="0.2"/>
  </g>
</svg>
